<?xml version="1.0" standalone="no"?>
<!DOCTYPE svg PUBLIC "-//W3C//DTD SVG 20010904//EN"
 "http://www.w3.org/TR/2001/REC-SVG-20010904/DTD/svg10.dtd">
<svg version="1.0" xmlns="http://www.w3.org/2000/svg"
 width="512.000000pt" height="512.000000pt" viewBox="0 0 512.000000 512.000000"
 preserveAspectRatio="xMidYMid meet">

<g transform="translate(0.000000,512.000000) scale(0.100000,-0.100000)"
fill="#000000" stroke="none">
<path d="M3295 5103 c-38 -8 -100 -27 -137 -43 -80 -34 -1675 -953 -1768
-1018 -36 -26 -109 -89 -164 -142 -283 -274 -484 -670 -526 -1041 -8 -64 -10
-416 -8 -1094 4 -1105 0 -1036 68 -1183 49 -104 115 -159 351 -292 134 -75
224 -133 263 -168 68 -63 136 -96 227 -112 117 -20 272 13 409 88 200 110
1637 943 1700 986 92 63 265 234 345 341 131 175 253 415 308 605 58 199 57
185 57 1299 0 1120 2 1087 -59 1231 -55 132 -149 218 -286 260 -44 13 -150 67
-285 145 -277 159 -329 174 -495 138z m-747 -1395 c30 -30 -4 -116 -60 -147
-22 -13 -29 -13 -42 -2 -44 37 13 159 75 161 8 0 20 -5 27 -12z m-277 -169
c25 -48 -41 -155 -91 -147 -31 4 -40 36 -24 83 24 72 91 109 115 64z m159
-1248 c173 -100 328 -196 344 -213 55 -60 54 -62 -293 -663 -172 -297 -322
-550 -335 -563 -13 -14 -40 -26 -64 -29 -78 -10 -141 55 -129 133 4 21 122
237 286 520 274 476 279 485 258 498 -12 7 -125 73 -252 145 -253 146 -295
179 -295 238 0 42 27 90 62 110 51 29 90 13 418 -176z m1350 -310 c14 -10 32
-36 40 -59 13 -37 12 -45 -2 -76 -9 -19 -32 -45 -50 -59 -54 -40 -820 -479
-853 -488 -66 -19 -134 30 -142 103 -8 78 -3 81 453 345 230 133 430 246 444
251 32 12 78 5 110 -17z"/>
</g>
</svg>
